<?xml version="1.0" encoding="utf-8"?>
<!-- Generator: Adobe Illustrator 23.0.2, SVG Export Plug-In . SVG Version: 6.00 Build 0)  -->
<svg version="1.1" id="图层_1" xmlns="http://www.w3.org/2000/svg" xmlns:xlink="http://www.w3.org/1999/xlink" x="0px" y="0px"
	 viewBox="0 0 200 200" style="enable-background:new 0 0 200 200;" xml:space="preserve">
<path d="M156,189.2h10.3c3.3,0,5.9-2.7,5.9-5.9l0,0c0,0,0-27.3,0-32.2c0-5,0-49,0-49c0-3.6,2.5-6.1,6.4-6.5l0,0
	c4-0.4,6.4-2.9,6.4-6.4c0-1.6-0.6-3.1-1.6-4.2l-80.3-70c0,0-2.3-2-4.6,0l-80.3,70c-1,1.1-1.6,2.6-1.6,4.2c0,3.6,2.9,6.4,6.4,6.4
	c0,0,6.5-0.2,6.4,6.5c0,0,0,44.1,0,49c0,5,0,32.2,0,32.2l0,0c0,3.3,2.7,5.9,5.9,5.9h44.9c0,0,6.3,0,6.3-7.1v-22.6
	c0,0-1.7-11.8,12.8-12.4c0,0,15.4-1.4,15.6,12.4v22.6c0,7.1,6.3,7.1,6.3,7.1h12.5l18.1,0L156,189.2z"/>
</svg>
